<mxfile host="Electron" modified="2024-04-19T07:10:42.494Z" agent="Mozilla/5.0 (X11; Linux x86_64) AppleWebKit/537.36 (KHTML, like Gecko) draw.io/24.0.4 Chrome/120.0.6099.109 Electron/28.1.0 Safari/537.36" etag="pQFJO5pHunWVrkINlgYR" version="24.0.4" type="device">
  <diagram name="Page-1" id="j_GJmBXQYxeXqUsdOwjc">
    <mxGraphModel dx="1185" dy="661" grid="1" gridSize="10" guides="1" tooltips="1" connect="1" arrows="1" fold="1" page="1" pageScale="1" pageWidth="1654" pageHeight="1169" math="0" shadow="0">
      <root>
        <mxCell id="0" />
        <mxCell id="1" parent="0" />
        <mxCell id="RKicGma7PqV81-VCO8lD-4" value="" style="rounded=0;whiteSpace=wrap;html=1;connectable=1;editable=0;movable=0;resizable=1;rotatable=1;deletable=1;locked=0;" parent="1" vertex="1">
          <mxGeometry x="310" y="200" width="540" height="540" as="geometry" />
        </mxCell>
        <mxCell id="RKicGma7PqV81-VCO8lD-13" style="edgeStyle=orthogonalEdgeStyle;rounded=0;orthogonalLoop=1;jettySize=auto;html=1;entryX=0.5;entryY=1;entryDx=0;entryDy=0;startArrow=blockThin;startFill=1;strokeWidth=4;endArrow=blockThin;endFill=1;" parent="1" source="RKicGma7PqV81-VCO8lD-2" target="RKicGma7PqV81-VCO8lD-1" edge="1">
          <mxGeometry relative="1" as="geometry" />
        </mxCell>
        <mxCell id="RKicGma7PqV81-VCO8lD-15" style="edgeStyle=orthogonalEdgeStyle;rounded=0;orthogonalLoop=1;jettySize=auto;html=1;strokeColor=default;strokeWidth=4;align=center;verticalAlign=middle;fontFamily=Helvetica;fontSize=11;fontColor=default;labelBackgroundColor=default;startArrow=blockThin;startFill=1;endArrow=blockThin;endFill=1;" parent="1" source="RKicGma7PqV81-VCO8lD-2" edge="1">
          <mxGeometry relative="1" as="geometry">
            <mxPoint x="580" y="410" as="targetPoint" />
          </mxGeometry>
        </mxCell>
        <mxCell id="RKicGma7PqV81-VCO8lD-17" style="edgeStyle=orthogonalEdgeStyle;rounded=0;orthogonalLoop=1;jettySize=auto;html=1;strokeColor=default;strokeWidth=4;align=center;verticalAlign=middle;fontFamily=Helvetica;fontSize=11;fontColor=default;labelBackgroundColor=default;startArrow=blockThin;startFill=1;endArrow=blockThin;endFill=1;" parent="1" source="RKicGma7PqV81-VCO8lD-3" edge="1">
          <mxGeometry relative="1" as="geometry">
            <mxPoint x="465" y="360" as="targetPoint" />
          </mxGeometry>
        </mxCell>
        <mxCell id="RKicGma7PqV81-VCO8lD-3" value="&lt;font style=&quot;font-size: 19px;&quot;&gt;SRAM&lt;/font&gt;" style="rounded=0;whiteSpace=wrap;html=1;" parent="1" vertex="1">
          <mxGeometry x="420" y="410" width="90" height="50" as="geometry" />
        </mxCell>
        <mxCell id="RKicGma7PqV81-VCO8lD-18" style="edgeStyle=orthogonalEdgeStyle;rounded=0;orthogonalLoop=1;jettySize=auto;html=1;exitX=0.5;exitY=0;exitDx=0;exitDy=0;strokeColor=default;strokeWidth=4;align=center;verticalAlign=middle;fontFamily=Helvetica;fontSize=11;fontColor=default;labelBackgroundColor=default;startArrow=blockThin;startFill=1;endArrow=blockThin;endFill=1;" parent="1" source="RKicGma7PqV81-VCO8lD-5" edge="1">
          <mxGeometry relative="1" as="geometry">
            <mxPoint x="694.8571428571429" y="360" as="targetPoint" />
          </mxGeometry>
        </mxCell>
        <mxCell id="RKicGma7PqV81-VCO8lD-5" value="&lt;font style=&quot;font-size: 19px;&quot;&gt;ROM&lt;/font&gt;" style="rounded=0;whiteSpace=wrap;html=1;" parent="1" vertex="1">
          <mxGeometry x="650" y="410" width="90" height="50" as="geometry" />
        </mxCell>
        <mxCell id="RKicGma7PqV81-VCO8lD-19" style="edgeStyle=orthogonalEdgeStyle;rounded=0;orthogonalLoop=1;jettySize=auto;html=1;strokeColor=default;strokeWidth=4;align=center;verticalAlign=middle;fontFamily=Helvetica;fontSize=11;fontColor=default;labelBackgroundColor=default;startArrow=blockThin;startFill=1;endArrow=blockThin;endFill=1;" parent="1" source="RKicGma7PqV81-VCO8lD-9" edge="1">
          <mxGeometry relative="1" as="geometry">
            <mxPoint x="580" y="459.9999999999999" as="targetPoint" />
          </mxGeometry>
        </mxCell>
        <mxCell id="RKicGma7PqV81-VCO8lD-6" value="&lt;font style=&quot;font-size: 19px;&quot;&gt;AXI 转&amp;nbsp;&lt;/font&gt;&lt;div&gt;&lt;font style=&quot;font-size: 19px;&quot;&gt;APB&amp;nbsp;&lt;/font&gt;&lt;/div&gt;" style="rounded=0;whiteSpace=wrap;html=1;" parent="1" vertex="1">
          <mxGeometry x="535" y="410" width="90" height="50" as="geometry" />
        </mxCell>
        <mxCell id="RKicGma7PqV81-VCO8lD-20" style="edgeStyle=orthogonalEdgeStyle;rounded=0;orthogonalLoop=1;jettySize=auto;html=1;entryX=1;entryY=0.5;entryDx=0;entryDy=0;strokeColor=default;strokeWidth=4;align=center;verticalAlign=middle;fontFamily=Helvetica;fontSize=11;fontColor=default;labelBackgroundColor=default;startArrow=blockThin;startFill=1;endArrow=blockThin;endFill=1;" parent="1" source="RKicGma7PqV81-VCO8lD-9" target="RKicGma7PqV81-VCO8lD-10" edge="1">
          <mxGeometry relative="1" as="geometry" />
        </mxCell>
        <mxCell id="RKicGma7PqV81-VCO8lD-21" style="edgeStyle=orthogonalEdgeStyle;rounded=0;orthogonalLoop=1;jettySize=auto;html=1;entryX=1;entryY=0.5;entryDx=0;entryDy=0;strokeColor=default;strokeWidth=4;align=center;verticalAlign=middle;fontFamily=Helvetica;fontSize=11;fontColor=default;labelBackgroundColor=default;startArrow=blockThin;startFill=1;endArrow=blockThin;endFill=1;" parent="1" source="RKicGma7PqV81-VCO8lD-9" target="RKicGma7PqV81-VCO8lD-11" edge="1">
          <mxGeometry relative="1" as="geometry" />
        </mxCell>
        <mxCell id="RKicGma7PqV81-VCO8lD-22" style="edgeStyle=orthogonalEdgeStyle;rounded=0;orthogonalLoop=1;jettySize=auto;html=1;entryX=0;entryY=0.5;entryDx=0;entryDy=0;strokeColor=default;strokeWidth=4;align=center;verticalAlign=middle;fontFamily=Helvetica;fontSize=11;fontColor=default;labelBackgroundColor=default;startArrow=blockThin;startFill=1;endArrow=blockThin;endFill=1;" parent="1" source="RKicGma7PqV81-VCO8lD-9" target="RKicGma7PqV81-VCO8lD-12" edge="1">
          <mxGeometry relative="1" as="geometry" />
        </mxCell>
        <mxCell id="RKicGma7PqV81-VCO8lD-24" style="edgeStyle=orthogonalEdgeStyle;rounded=0;orthogonalLoop=1;jettySize=auto;html=1;entryX=0;entryY=0.5;entryDx=0;entryDy=0;strokeColor=default;strokeWidth=4;align=center;verticalAlign=middle;fontFamily=Helvetica;fontSize=11;fontColor=default;labelBackgroundColor=default;startArrow=blockThin;startFill=1;endArrow=blockThin;endFill=1;" parent="1" source="RKicGma7PqV81-VCO8lD-9" target="RKicGma7PqV81-VCO8lD-23" edge="1">
          <mxGeometry relative="1" as="geometry" />
        </mxCell>
        <mxCell id="RKicGma7PqV81-VCO8lD-10" value="&lt;font style=&quot;font-size: 19px;&quot;&gt;SPI 控制器&lt;/font&gt;" style="rounded=0;whiteSpace=wrap;html=1;" parent="1" vertex="1">
          <mxGeometry x="400" y="570" width="120" height="60" as="geometry" />
        </mxCell>
        <mxCell id="RKicGma7PqV81-VCO8lD-9" value="&lt;font style=&quot;font-size: 19px;&quot;&gt;APB 交叉桥（XBar）&lt;/font&gt;" style="rounded=0;whiteSpace=wrap;html=1;" parent="1" vertex="1">
          <mxGeometry x="420" y="500" width="320" height="40" as="geometry" />
        </mxCell>
        <mxCell id="RKicGma7PqV81-VCO8lD-11" value="&lt;font style=&quot;font-size: 19px;&quot;&gt;串口控制器&lt;/font&gt;" style="rounded=0;whiteSpace=wrap;html=1;" parent="1" vertex="1">
          <mxGeometry x="400" y="664" width="120" height="60" as="geometry" />
        </mxCell>
        <mxCell id="RKicGma7PqV81-VCO8lD-12" value="&lt;font style=&quot;font-size: 19px;&quot;&gt;GPIO 控制器&lt;/font&gt;" style="rounded=0;whiteSpace=wrap;html=1;" parent="1" vertex="1">
          <mxGeometry x="640" y="570" width="120" height="60" as="geometry" />
        </mxCell>
        <mxCell id="RKicGma7PqV81-VCO8lD-2" value="&lt;font style=&quot;font-size: 19px;&quot;&gt;AXI 交叉桥（XBar）&lt;/font&gt;" style="rounded=0;whiteSpace=wrap;html=1;" parent="1" vertex="1">
          <mxGeometry x="420" y="320" width="320" height="40" as="geometry" />
        </mxCell>
        <mxCell id="RKicGma7PqV81-VCO8lD-1" value="&lt;font style=&quot;font-size: 19px;&quot;&gt;CPU 核&lt;/font&gt;" style="rounded=0;whiteSpace=wrap;html=1;" parent="1" vertex="1">
          <mxGeometry x="500" y="210" width="160" height="60" as="geometry" />
        </mxCell>
        <mxCell id="_vBp17LKzV2heSJol3ov-7" style="edgeStyle=orthogonalEdgeStyle;rounded=0;orthogonalLoop=1;jettySize=auto;html=1;entryX=0.196;entryY=-0.004;entryDx=0;entryDy=0;entryPerimeter=0;startArrow=classic;startFill=1;" parent="1" source="RKicGma7PqV81-VCO8lD-10" target="_vBp17LKzV2heSJol3ov-1" edge="1">
          <mxGeometry relative="1" as="geometry" />
        </mxCell>
        <mxCell id="_vBp17LKzV2heSJol3ov-8" style="edgeStyle=orthogonalEdgeStyle;rounded=0;orthogonalLoop=1;jettySize=auto;html=1;startArrow=classic;startFill=1;" parent="1" edge="1">
          <mxGeometry relative="1" as="geometry">
            <mxPoint x="400" y="694.5" as="sourcePoint" />
            <mxPoint x="370" y="694" as="targetPoint" />
          </mxGeometry>
        </mxCell>
        <mxCell id="_vBp17LKzV2heSJol3ov-9" style="edgeStyle=orthogonalEdgeStyle;rounded=0;orthogonalLoop=1;jettySize=auto;html=1;entryX=0.196;entryY=-0.004;entryDx=0;entryDy=0;entryPerimeter=0;startArrow=classic;startFill=1;" parent="1" edge="1">
          <mxGeometry relative="1" as="geometry">
            <mxPoint x="787" y="600.5" as="sourcePoint" />
            <mxPoint x="760" y="599.5" as="targetPoint" />
            <Array as="points">
              <mxPoint x="770" y="601" />
            </Array>
          </mxGeometry>
        </mxCell>
        <mxCell id="_vBp17LKzV2heSJol3ov-1" value="&lt;font style=&quot;font-size: 17px;&quot;&gt;IO&lt;/font&gt;" style="rounded=0;whiteSpace=wrap;html=1;rotation=90;" parent="1" vertex="1">
          <mxGeometry x="277.5" y="633" width="160" height="30" as="geometry" />
        </mxCell>
        <mxCell id="_vBp17LKzV2heSJol3ov-12" value="" style="shape=flexArrow;endArrow=classic;startArrow=classic;html=1;rounded=0;fillColor=default;" parent="1" edge="1">
          <mxGeometry width="100" height="100" relative="1" as="geometry">
            <mxPoint x="270" y="650" as="sourcePoint" />
            <mxPoint x="340" y="650" as="targetPoint" />
          </mxGeometry>
        </mxCell>
        <mxCell id="_vBp17LKzV2heSJol3ov-14" value="" style="shape=flexArrow;endArrow=classic;startArrow=classic;html=1;rounded=0;fillColor=default;" parent="1" edge="1">
          <mxGeometry width="100" height="100" relative="1" as="geometry">
            <mxPoint x="820" y="652.26" as="sourcePoint" />
            <mxPoint x="890" y="652.26" as="targetPoint" />
          </mxGeometry>
        </mxCell>
        <mxCell id="_vBp17LKzV2heSJol3ov-22" value="" style="group" parent="1" vertex="1" connectable="0">
          <mxGeometry x="390" y="210" width="80" height="90" as="geometry" />
        </mxCell>
        <mxCell id="_vBp17LKzV2heSJol3ov-15" value="&lt;font style=&quot;font-size: 14px;&quot;&gt;PLL&lt;/font&gt;" style="rounded=0;whiteSpace=wrap;html=1;" parent="_vBp17LKzV2heSJol3ov-22" vertex="1">
          <mxGeometry x="10" y="10" width="60" height="30" as="geometry" />
        </mxCell>
        <mxCell id="_vBp17LKzV2heSJol3ov-16" value="&lt;span style=&quot;font-size: 14px;&quot;&gt;复位逻辑&lt;/span&gt;" style="rounded=0;whiteSpace=wrap;html=1;" parent="_vBp17LKzV2heSJol3ov-22" vertex="1">
          <mxGeometry x="10" y="50" width="60" height="30" as="geometry" />
        </mxCell>
        <mxCell id="_vBp17LKzV2heSJol3ov-21" value="" style="rounded=0;whiteSpace=wrap;html=1;fillColor=none;dashed=1;" parent="_vBp17LKzV2heSJol3ov-22" vertex="1">
          <mxGeometry width="80" height="90" as="geometry" />
        </mxCell>
        <mxCell id="_vBp17LKzV2heSJol3ov-23" value="&lt;font style=&quot;font-size: 17px;&quot;&gt;IO&lt;/font&gt;" style="rounded=0;whiteSpace=wrap;html=1;rotation=90;" parent="1" vertex="1">
          <mxGeometry x="320" y="241.25" width="60" height="27.5" as="geometry" />
        </mxCell>
        <mxCell id="_vBp17LKzV2heSJol3ov-26" value="" style="edgeStyle=orthogonalEdgeStyle;rounded=0;orthogonalLoop=1;jettySize=auto;html=1;startArrow=classic;startFill=1;" parent="1" source="_vBp17LKzV2heSJol3ov-21" target="_vBp17LKzV2heSJol3ov-23" edge="1">
          <mxGeometry relative="1" as="geometry" />
        </mxCell>
        <mxCell id="_vBp17LKzV2heSJol3ov-28" value="" style="shape=flexArrow;endArrow=classic;startArrow=classic;html=1;rounded=0;fillColor=default;" parent="1" edge="1">
          <mxGeometry width="100" height="100" relative="1" as="geometry">
            <mxPoint x="265" y="254.76" as="sourcePoint" />
            <mxPoint x="335" y="254.76" as="targetPoint" />
          </mxGeometry>
        </mxCell>
        <mxCell id="_vBp17LKzV2heSJol3ov-29" style="edgeStyle=orthogonalEdgeStyle;rounded=0;orthogonalLoop=1;jettySize=auto;html=1;startArrow=classic;startFill=1;exitX=0.786;exitY=1.101;exitDx=0;exitDy=0;exitPerimeter=0;" parent="1" edge="1">
          <mxGeometry relative="1" as="geometry">
            <mxPoint x="788.47" y="694.69" as="sourcePoint" />
            <mxPoint x="759" y="693.75" as="targetPoint" />
          </mxGeometry>
        </mxCell>
        <mxCell id="RKicGma7PqV81-VCO8lD-23" value="&lt;font style=&quot;font-size: 19px;&quot;&gt;VGA 控制器&lt;/font&gt;" style="rounded=0;whiteSpace=wrap;html=1;" parent="1" vertex="1">
          <mxGeometry x="635" y="664" width="125" height="60" as="geometry" />
        </mxCell>
        <mxCell id="_vBp17LKzV2heSJol3ov-2" value="&lt;font style=&quot;font-size: 17px;&quot;&gt;IO&lt;/font&gt;" style="rounded=0;whiteSpace=wrap;html=1;rotation=90;" parent="1" vertex="1">
          <mxGeometry x="720" y="632.5" width="165" height="30" as="geometry" />
        </mxCell>
        <mxCell id="B_ua-V1kUYKJd1JW99fh-2" value="FPGA" style="text;whiteSpace=wrap;fontSize=22;" vertex="1" parent="1">
          <mxGeometry x="780" y="201.25" width="70" height="40" as="geometry" />
        </mxCell>
      </root>
    </mxGraphModel>
  </diagram>
</mxfile>
